<svg width="50" height="50" viewBox="0 0 50 50" fill="none" xmlns="http://www.w3.org/2000/svg">
<path d="M21.1914 12.6836C20.5811 12.0732 19.5918 12.0732 18.9814 12.6836L7.77441 23.8906C7.73633 23.9287 7.7002 23.9687 7.66602 24.0107C7.65527 24.0234 7.64648 24.0371 7.63574 24.0508C7.61523 24.0781 7.59473 24.1045 7.5752 24.1328C7.56152 24.1533 7.5498 24.1748 7.53711 24.1953C7.52344 24.2178 7.50977 24.2402 7.49707 24.2637C7.48437 24.2871 7.47363 24.3105 7.46289 24.335C7.45215 24.3574 7.44141 24.3789 7.43164 24.4014C7.4209 24.4268 7.41309 24.4521 7.4043 24.4775C7.39648 24.5 7.3877 24.5225 7.38086 24.5449C7.37207 24.5732 7.36621 24.6016 7.35937 24.6289C7.35449 24.6504 7.34863 24.6709 7.34375 24.6924C7.33594 24.7295 7.33105 24.7666 7.32715 24.8037C7.3252 24.8174 7.32324 24.8301 7.32129 24.8437C7.31055 24.9482 7.31055 25.0537 7.32129 25.1582C7.32227 25.1641 7.32324 25.1699 7.32422 25.1758C7.3291 25.2207 7.33594 25.2656 7.34473 25.3096C7.34766 25.3223 7.35156 25.335 7.35449 25.3477C7.36328 25.3848 7.37207 25.4219 7.38281 25.458C7.38672 25.4707 7.3916 25.4834 7.39648 25.4971C7.4082 25.5322 7.4209 25.5684 7.43555 25.6035C7.44043 25.6143 7.44531 25.624 7.4502 25.6348C7.4668 25.6709 7.4834 25.707 7.50195 25.7422C7.50586 25.749 7.51074 25.7559 7.51465 25.7627C7.53516 25.7998 7.55762 25.8369 7.58105 25.873C7.58301 25.876 7.58496 25.8789 7.58691 25.8818C7.64063 25.9609 7.70215 26.0361 7.77148 26.1055L18.9834 37.3174C19.2881 37.6221 19.6885 37.7754 20.0879 37.7754C20.4873 37.7754 20.8877 37.623 21.1924 37.3174C21.8027 36.707 21.8027 35.7178 21.1924 35.1074L12.6475 26.5625H41.126C41.9893 26.5625 42.6885 25.8633 42.6885 25C42.6885 24.1367 41.9893 23.4375 41.126 23.4375H12.6475L21.1914 14.8926C21.8018 14.2832 21.8018 13.2939 21.1914 12.6836Z" fill="white"/>
</svg>
